<?xml version="1.0" standalone="no"?>
<!DOCTYPE svg PUBLIC "-//W3C//DTD SVG 20010904//EN"
 "http://www.w3.org/TR/2001/REC-SVG-20010904/DTD/svg10.dtd">
<svg version="1.0" xmlns="http://www.w3.org/2000/svg"
 width="256.000000pt" height="256.000000pt" viewBox="0 0 256.000000 256.000000"
 preserveAspectRatio="xMidYMid meet">
<metadata>
Created by potrace 1.14, written by Peter Selinger 2001-2017
</metadata>
<g transform="translate(0.000000,256.000000) scale(0.100000,-0.100000)"
fill="#000000" stroke="none">
<path d="M1140 2553 c-22 -3 -114 -19 -161 -28 -9 -2 -57 -17 -107 -34 -381
-127 -678 -427 -806 -811 -50 -151 -64 -249 -61 -420 3 -208 35 -345 120 -526
100 -213 251 -388 450 -521 141 -95 341 -172 510 -197 97 -14 339 -15 395 -2
14 4 41 9 60 12 60 9 235 71 312 110 184 93 340 225 466 396 23 31 42 61 42
67 0 5 4 11 9 13 13 5 85 152 116 238 66 184 91 452 59 635 -94 535 -492 944
-1022 1052 -70 14 -320 25 -382 16z"/>
</g>
</svg>
